<svg xmlns="http://www.w3.org/2000/svg" viewBox="0 0 64 64" role="img" aria-label="Certy">
  <defs>
    <linearGradient id="bg" x1="0%" y1="0%" x2="100%" y2="100%">
      <stop offset="0%" stop-color="#1f1d1a" />
      <stop offset="100%" stop-color="#2f2b25" />
    </linearGradient>
  </defs>
  <rect width="64" height="64" rx="16" fill="url(#bg)" />
  <path
    d="M41.5 18.8c-1.8-1.2-4.9-2.6-8.9-2.6c-8.6 0-14.6 6.2-14.6 15.8c0 9.6 6 15.8 14.6 15.8c4.1 0 7.2-1.4 9-2.6l-2.5-4.6c-1.2 0.9-3.3 1.9-5.8 1.9c-5.4 0-8.8-4-8.8-10.5c0-6.6 3.4-10.6 8.8-10.6c2.5 0 4.7 1 5.8 2L41.5 18.8z"
    fill="#f8f5ef"
  />
  <circle cx="45.4" cy="45.4" r="3.8" fill="#d8b066" />
</svg>
